<?xml version="1.0" encoding="UTF-8"?>
<svg id="_Ñëîé_1" data-name="Ñëîé 1" xmlns="http://www.w3.org/2000/svg" viewBox="0 0 500 500">
  <defs>
    <style>
      .cls-1 {
        fill: #fff;
      }

      .cls-2 {
        fill: #ed2024;
      }

      .cls-3 {
        fill: #e6e6e6;
      }

      .cls-4 {
        fill: #cccccb;
      }

      .cls-5 {
        fill: none;
        stroke: #ed2024;
        stroke-miterlimit: 10;
        stroke-width: 5px;
      }
    </style>
  </defs>
  <rect class="cls-1" width="500" height="500"/>
  <g>
    <g>
      <polygon class="cls-3" points="307 75 125 75 125 425 375 425 375 143 307 75"/>
      <polygon class="cls-4" points="307 143 375 143 307 75 307 143"/>
      <rect class="cls-2" x="125" y="344" width="250" height="81"/>
    </g>
    <path class="cls-5" d="M205.25,276.5s55.43-74.96,42-126c-10-38-29-6-18,30s48.39,73.54,73,82c32,11,47-9,15-20-19.5-6.7-91.73-13.28-136,25-37,32-3,46,24,9Z"/>
    <g>
      <path class="cls-1" d="M202.98,403.3v-35.79h11.6c4.39,0,7.26,.18,8.59,.54,2.05,.54,3.77,1.71,5.15,3.5,1.38,1.8,2.08,4.12,2.08,6.97,0,2.2-.4,4.04-1.2,5.54-.8,1.5-1.81,2.67-3.04,3.53-1.23,.85-2.48,1.42-3.75,1.7-1.73,.34-4.22,.51-7.5,.51h-4.71v13.5h-7.23Zm7.23-29.74v10.16h3.96c2.85,0,4.75-.19,5.71-.56,.96-.37,1.71-.96,2.26-1.76,.54-.8,.82-1.72,.82-2.78,0-1.3-.38-2.38-1.15-3.22-.77-.85-1.73-1.38-2.91-1.59-.86-.16-2.6-.24-5.2-.24h-3.49Z"/>
      <path class="cls-1" d="M236.3,367.51h13.21c2.98,0,5.25,.23,6.81,.68,2.1,.62,3.9,1.72,5.4,3.3,1.5,1.58,2.64,3.51,3.42,5.8,.78,2.29,1.17,5.11,1.17,8.46,0,2.95-.37,5.49-1.1,7.62-.9,2.6-2.17,4.71-3.83,6.32-1.25,1.22-2.95,2.17-5.08,2.86-1.6,.5-3.73,.76-6.4,.76h-13.6v-35.79Zm7.23,6.05v23.71h5.4c2.02,0,3.47-.11,4.37-.34,1.17-.29,2.14-.79,2.92-1.49,.77-.7,1.4-1.85,1.89-3.45s.73-3.79,.73-6.56-.24-4.89-.73-6.37c-.49-1.48-1.17-2.64-2.05-3.47s-1.99-1.39-3.34-1.68c-1.01-.23-2.99-.34-5.93-.34h-3.25Z"/>
      <path class="cls-1" d="M272.49,403.3v-35.79h24.54v6.05h-17.31v8.47h14.94v6.05h-14.94v15.21h-7.23Z"/>
    </g>
  </g>
</svg>